<svg width="102" height="100" viewBox="0 0 102 100" fill="none" xmlns="http://www.w3.org/2000/svg">
<path d="M51.1171 17.918C53.2821 17.918 55.0782 16.1216 55.0782 13.9106V4.00736C55.0782 1.7964 53.2821 0 51.1171 0C48.9064 0 47.1098 1.7964 47.1098 4.00736V13.9106C47.1098 16.1216 48.9064 17.918 51.1171 17.918ZM73.6876 27.3606C75.2535 28.8807 77.7869 28.9267 79.3528 27.3606L86.4005 20.3132C87.9203 18.7932 87.9203 16.2137 86.4005 14.6476C84.8803 13.1276 82.347 13.1276 80.781 14.6476L73.6876 21.7411C72.1674 23.3072 72.1674 25.8406 73.6876 27.3606ZM83.038 49.9769C83.038 52.1419 84.8803 53.938 87.0453 53.938H96.9485C99.1135 53.938 100.91 52.1419 100.91 49.9769C100.91 47.8119 99.1135 45.9695 96.9485 45.9695H87.0453C84.8803 45.9695 83.038 47.8119 83.038 49.9769ZM73.6876 72.5931C72.1674 74.1595 72.1674 76.6928 73.6876 78.2126L80.781 85.3522C82.347 86.8262 84.8803 86.78 86.4005 85.306C87.9203 83.7401 87.9203 81.2067 86.4005 79.6865L79.3071 72.5931C77.7869 71.1191 75.2535 71.1191 73.6876 72.5931ZM51.1171 82.0359C48.9064 82.0359 47.1098 83.832 47.1098 85.997V95.9465C47.1098 98.1114 48.9064 99.9075 51.1171 99.9075C53.2821 99.9075 55.0782 98.1114 55.0782 95.9465V85.997C55.0782 83.832 53.2821 82.0359 51.1171 82.0359ZM28.5009 72.5931C26.9348 71.1191 24.3554 71.1191 22.8353 72.5931L15.7879 79.6408C14.2679 81.1605 14.2679 83.6938 15.7418 85.2603C17.2618 86.7342 19.8413 86.78 21.4074 85.306L28.4548 78.2126C29.9749 76.6928 29.9749 74.1595 28.5009 72.5931ZM19.1504 49.9769C19.1504 47.8119 17.3079 45.9695 15.143 45.9695H5.23976C3.07486 45.9695 1.27846 47.8119 1.27846 49.9769C1.27846 52.1419 3.07486 53.938 5.23976 53.938H15.143C17.3079 53.938 19.1504 52.1419 19.1504 49.9769ZM28.4548 27.3606C29.9749 25.8866 29.9749 23.2611 28.5009 21.7411L21.4534 14.6476C19.9334 13.1736 17.354 13.1276 15.834 14.6476C14.3139 16.2137 14.3139 18.7932 15.7879 20.2672L22.8353 27.3606C24.3554 28.8807 26.8888 28.8807 28.4548 27.3606Z" fill="#FFD60A"/>
<path d="M51.0709 73.4685C63.8763 73.4685 74.5163 62.8281 74.5163 49.9769C74.5163 37.0796 63.8763 26.4394 51.0709 26.4394C38.266 26.4394 27.6257 37.0796 27.6257 49.9769C27.6257 62.8281 38.266 73.4685 51.0709 73.4685Z" fill="#FFD60A"/>
</svg>
