<svg width="101" height="100" viewBox="0 0 101 100" fill="none" xmlns="http://www.w3.org/2000/svg">
<g clip-path="url(#clip0_18_38)">
<path d="M86.0648 67.0464L91.4134 72.3604C92.5177 73.4646 92.5177 75.2936 91.4134 76.3632C90.3092 77.4674 88.4803 77.5363 87.4107 76.3978L82.0275 71.0838C80.9233 69.9792 80.9233 68.1506 82.0275 67.0464C83.1317 65.9765 84.9606 65.9765 86.0648 67.0464ZM83.1317 51.0698C83.1317 57.2205 79.8123 62.6603 74.8909 65.6627C73.9249 55.6234 65.8636 48.0655 55.285 46.998C54.1815 45.2561 52.918 43.6672 51.5067 42.2611C54.5027 37.3029 59.9443 33.9545 66.0855 33.9545C75.4022 33.9545 83.1317 41.7185 83.1317 51.0698ZM101.8 51.0698C101.8 52.6571 100.523 53.9337 98.9705 53.9337H91.4824C89.964 53.9337 88.6185 52.6571 88.6185 51.0698C88.6185 49.5515 89.964 48.2057 91.4824 48.2057H98.9705C100.523 48.2057 101.8 49.5515 101.8 51.0698ZM91.4134 25.7764C92.5177 26.8806 92.5177 28.744 91.4134 29.8482L86.0995 35.1277C84.9606 36.2664 83.1317 36.2319 82.0275 35.1277C80.9233 34.0235 80.9233 32.1946 82.0275 31.125L87.4107 25.7764C88.4803 24.6722 90.3092 24.6722 91.4134 25.7764ZM44.8295 25.7764L50.1435 31.125C51.2131 32.1601 51.2131 34.058 50.1089 35.1277C49.0046 36.2319 47.1761 36.2319 46.0719 35.1277L40.7921 29.8137C39.6879 28.744 39.7225 26.8806 40.8268 25.7764C41.931 24.6722 43.7599 24.7067 44.8295 25.7764ZM68.9497 18.116V25.6384C68.9497 27.1567 67.6384 28.4679 66.0855 28.4679C64.5329 28.4679 63.2216 27.1567 63.2216 25.6384V18.116C63.2216 16.5976 64.5329 15.2519 66.0855 15.2519C67.6384 15.2519 68.9497 16.5976 68.9497 18.116Z" fill="#FFD60A"/>
<path d="M16.189 84.7481H53.5251C63.3594 84.7481 70.9854 77.2949 70.9854 67.7019C70.9854 58.1781 63.2216 50.9663 52.9042 50.8974C48.9358 43.3403 41.7929 38.7164 33.2697 38.7164C22.0206 38.7164 12.4968 47.4466 11.4271 58.7993C5.699 60.5247 1.79977 65.4246 1.79977 71.6357C1.79977 79.2963 7.56235 84.7481 16.189 84.7481Z" fill="white"/>
</g>
<defs>
<clipPath id="clip0_18_38">
<rect width="100" height="100" fill="white" transform="translate(0.51178)"/>
</clipPath>
</defs>
</svg>
