<svg width="103" height="100" viewBox="0 0 103 100" fill="none" xmlns="http://www.w3.org/2000/svg">
<g clip-path="url(#clip0_18_103)">
<path d="M72.5082 98.5943L78.1719 88.7918C78.9562 87.4409 78.5203 85.916 77.2136 85.1754C75.9064 84.3911 74.4252 84.827 73.6409 86.1775L67.8898 96.0674C67.1929 97.3309 67.5414 98.8558 68.8918 99.5964C70.199 100.337 71.7676 99.9015 72.5082 98.5943Z" fill="#5AC8F5"/>
<path d="M58.8716 86.3519L64.5353 76.5052C65.3196 75.1985 64.8837 73.6736 63.5765 72.8893C62.2698 72.1487 60.7882 72.5409 60.0043 73.8913L54.2969 83.825C53.5559 85.0447 53.9047 86.5696 55.2552 87.3539C56.5624 88.0945 58.1305 87.6154 58.8716 86.3519Z" fill="#5AC8F5"/>
<path d="M37.828 98.6381L43.4918 88.8351C44.2761 87.4846 43.8839 85.9597 42.5769 85.2192C41.2263 84.4349 39.745 84.8703 38.9607 86.2212L33.2534 96.1111C32.5127 97.3746 32.9048 98.8995 34.2118 99.6401C35.5189 100.381 37.0873 99.9452 37.828 98.6381Z" fill="#5AC8F5"/>
<path d="M24.1912 86.3952L29.8551 76.5489C30.6828 75.2418 30.2472 73.7169 28.9401 72.933C27.6331 72.192 26.1518 72.5841 25.324 73.935L19.6165 83.8683C18.8759 85.0884 19.268 86.6133 20.6186 87.3976C21.8821 88.1382 23.4505 87.6586 24.1912 86.3952Z" fill="#5AC8F5"/>
<path d="M23.0584 66.0054H77.1266C91.4168 66.0054 102.047 55.1572 102.047 41.7382C102.047 27.8399 90.7195 17.6886 75.9501 17.6886C70.5041 6.9273 60.3965 0 47.8051 0C31.4235 0 17.9174 12.8526 16.4797 29.0163C8.59386 31.3254 2.58148 38.1656 2.58148 47.3582C2.58148 57.6841 10.0752 66.0054 23.0584 66.0054Z" fill="white"/>
</g>
<defs>
<clipPath id="clip0_18_103">
<rect width="102.108" height="100" fill="white" transform="translate(0.599792)"/>
</clipPath>
</defs>
</svg>
