<svg width="119" height="100" viewBox="0 0 119 100" fill="none" xmlns="http://www.w3.org/2000/svg">
<g clip-path="url(#clip0_22_118)">
<path d="M66.2181 74.0619C55.3929 79.2359 45.7536 87.3089 31.7577 87.3089C25.829 87.3089 20.4098 85.8732 15.176 82.8159C12.6285 81.3802 12.5358 78.8328 13.6475 77.1652C14.5738 75.7295 16.4728 74.9882 18.4182 76.0999C23.1426 78.8328 27.1722 79.8515 31.7577 79.8515C45.6551 79.8515 55.299 70.6109 67.5936 65.5772C66.7674 68.2603 66.2181 71.1198 66.2181 74.0619Z" fill="#007AFF"/>
<path d="M77.264 45.5287C61.1849 48.3865 50.298 62.4825 31.804 62.4825C25.8753 62.4825 20.4562 61.0003 15.2223 57.9899C12.6748 56.5078 12.5822 54.0064 13.6938 52.3392C14.6201 50.9031 16.5192 50.1622 18.4645 51.2735C23.1889 53.9603 27.2186 55.0256 31.804 55.0256C50.4683 55.0256 61.46 38.3582 81.4984 37.5938L77.264 45.5287Z" fill="#007AFF"/>
<path d="M99.5206 17.1375C102.114 18.6661 102.207 21.1672 101.049 22.8346C100.077 24.2241 98.2234 24.9652 96.2784 23.8536C91.5539 21.1672 87.4779 20.1482 82.9389 20.1482C63.5317 20.1482 52.3692 37.61 31.7577 37.61C25.829 37.61 20.4098 36.1741 15.176 33.1635C12.6285 31.6813 12.5358 29.1801 13.6475 27.5127C14.5738 26.0769 16.4728 25.3358 18.4182 26.4474C23.1426 29.1338 27.1722 30.1528 31.7577 30.1528C50.8871 30.1528 61.9566 12.691 82.9389 12.691C88.8675 12.691 94.2868 14.1269 99.5206 17.1375Z" fill="#007AFF"/>
<path d="M92.5727 93.6544C103.735 93.6544 112.628 84.9469 112.628 74.0619C112.628 68.0407 109.618 62.1585 107.07 57.3876L96.7413 38.1658C95.63 36.0815 94.6108 35.2015 92.5727 35.2015C90.4887 35.2015 89.5159 36.0815 88.4042 38.1658L78.1215 57.3876C75.5741 62.1585 72.5637 68.0407 72.5637 74.0619C72.5637 84.9469 81.4567 93.6544 92.5727 93.6544Z" fill="white" fill-opacity="0.85"/>
</g>
<defs>
<clipPath id="clip0_22_118">
<rect width="118.62" height="100" fill="white" transform="translate(0.307983)"/>
</clipPath>
</defs>
</svg>
