<svg width="99" height="100" viewBox="0 0 99 100" fill="none" xmlns="http://www.w3.org/2000/svg">
<g clip-path="url(#clip0_23_138)">
<path d="M70.7375 48.712C70.7375 36.4561 60.5175 26.1944 48.2198 26.1944C35.9225 26.1944 25.7023 36.4561 25.7023 48.712C25.7023 51.7032 26.367 54.5701 27.4472 57.1044H68.9512C70.0726 54.5701 70.7375 51.7032 70.7375 48.712ZM3.97403 51.0799H14.1942C16.3546 51.0799 17.9749 49.5846 17.9333 47.7148C17.8917 45.8868 16.3546 44.3497 14.1942 44.3497H3.97403C1.81367 44.3497 0.276489 45.8455 0.276489 47.7148C0.276489 49.5846 1.81367 51.0799 3.97403 51.0799ZM26.7825 27.3577C28.0704 26.0282 28.0704 23.8679 26.5332 22.3307L19.3043 15.1018C17.7671 13.5646 15.6483 13.6062 14.3188 14.894C12.9894 16.182 12.9894 18.3423 14.5266 19.8795L21.7555 27.1084C23.2927 28.6456 25.4945 28.6871 26.7825 27.3577ZM48.2198 18.5085C50.0895 18.4669 51.5849 16.8882 51.5849 14.7694V4.54924C51.5849 2.38888 50.0895 0.8517 48.2198 0.8517C46.3505 0.8517 44.8547 2.38888 44.8547 4.54924V14.7694C44.8547 16.8882 46.3505 18.5501 48.2198 18.5085ZM69.6574 27.3577C70.9451 28.6456 73.1471 28.6456 74.6842 27.1084L81.9135 19.8795C83.4505 18.3423 83.4088 16.2235 82.0794 14.894C80.8329 13.5646 78.6726 13.5646 77.0938 15.1018L69.865 22.3307C68.3696 23.8679 68.3279 26.0698 69.6574 27.3577ZM82.2457 51.0799H92.4657C94.626 51.1216 96.1635 49.5846 96.1635 47.7148C96.1635 45.8868 94.626 44.3497 92.4657 44.3497H82.2457C80.0854 44.3497 78.465 45.8455 78.5066 47.7148C78.5479 49.5846 80.0854 51.0799 82.2457 51.0799Z" fill="#FFD60A"/>
<path d="M9.16719 67.1997H93.5458C94.9999 67.1997 96.1635 66.0779 96.1635 64.5825C96.1635 63.0867 94.9999 61.9649 93.5458 61.9649H9.16719C7.67157 61.9649 6.54985 63.0867 6.54985 64.5825C6.54985 66.0779 7.67157 67.1997 9.16719 67.1997ZM2.89385 83.1949H87.2725C88.7266 83.1949 89.8902 82.0313 89.8902 80.536C89.8902 79.0402 88.7266 77.9183 87.2725 77.9183H2.89385C1.43976 77.9183 0.276489 79.0402 0.276489 80.536C0.276489 82.0313 1.43976 83.1949 2.89385 83.1949ZM9.16719 99.1483H93.5458C94.9999 99.1483 96.1635 98.0265 96.1635 96.5307C96.1635 94.9936 94.9999 93.8718 93.5458 93.8718H9.16719C7.67157 93.8718 6.54985 94.9936 6.54985 96.5307C6.54985 98.0265 7.67157 99.1483 9.16719 99.1483Z" fill="white"/>
</g>
<defs>
<clipPath id="clip0_23_138">
<rect width="97.4241" height="100" fill="white" transform="translate(0.795898)"/>
</clipPath>
</defs>
</svg>
