<svg width="101" height="100" viewBox="0 0 101 100" fill="none" xmlns="http://www.w3.org/2000/svg">
<g clip-path="url(#clip0_17_27)">
<path d="M71.6534 48.4104C71.6534 36.1545 61.4334 25.8928 49.1356 25.8928C36.8383 25.8928 26.6181 36.1545 26.6181 48.4104C26.6181 51.4016 27.2828 54.2685 28.363 56.8028H69.867C70.9884 54.2685 71.6534 51.4016 71.6534 48.4104ZM4.88987 50.7783H15.11C17.2704 50.7783 18.8907 49.283 18.8491 47.4132C18.8076 45.5852 17.2704 44.0481 15.11 44.0481H4.88987C2.7295 44.0481 1.19232 45.5439 1.19232 47.4132C1.19232 49.283 2.7295 50.7783 4.88987 50.7783ZM27.6983 27.0561C28.9862 25.7266 28.9862 23.5663 27.4491 22.0291L20.2201 14.8002C18.683 13.263 16.5641 13.3046 15.2347 14.5924C13.9052 15.8804 13.9052 18.0407 15.4424 19.5779L22.6713 26.8068C24.2085 28.344 26.4104 28.3855 27.6983 27.0561ZM49.1356 18.2069C51.0054 18.1653 52.5007 16.5866 52.5007 14.4678V4.24764C52.5007 2.08727 51.0054 0.550095 49.1356 0.550095C47.2663 0.550095 45.7705 2.08727 45.7705 4.24764V14.4678C45.7705 16.5866 47.2663 18.2485 49.1356 18.2069ZM70.5732 27.0561C71.861 28.344 74.063 28.344 75.6 26.8068L82.8293 19.5779C84.3663 18.0407 84.3247 15.9219 82.9952 14.5924C81.7487 13.263 79.5884 13.263 78.0096 14.8002L70.7808 22.0291C69.2854 23.5663 69.2438 25.7681 70.5732 27.0561ZM83.1615 50.7783H93.3815C95.5418 50.82 97.0793 49.283 97.0793 47.4132C97.0793 45.5852 95.5418 44.0481 93.3815 44.0481H83.1615C81.0012 44.0481 79.3808 45.5439 79.4225 47.4132C79.4637 49.283 81.0012 50.7783 83.1615 50.7783Z" fill="#FFD60A"/>
<path d="M23.8346 86.3413L29.2355 76.9939C29.9833 75.7057 29.5678 74.2516 28.363 73.5037C27.0751 72.7975 25.6626 73.2131 24.9147 74.4592L19.4723 83.9317C18.766 85.1365 19.0984 86.5906 20.3863 87.2968C21.6327 88.003 23.1283 87.5878 23.8346 86.3413ZM33.4731 98.1818L45.7705 76.9105C46.4767 75.7057 46.1027 74.2933 44.8979 73.5454C43.7348 72.8392 42.1976 73.2131 41.4914 74.4592L29.277 95.6475C28.5708 96.9353 28.9447 98.3894 30.191 99.096C31.3543 99.8022 32.7669 99.4282 33.4731 98.1818ZM56.863 86.2996L62.3055 76.9522C63.0534 75.664 62.6382 74.2103 61.3917 73.4624C60.1452 72.7562 58.7328 73.1714 57.9432 74.4179L52.5007 83.89C51.7945 85.0948 52.1685 86.5489 53.4566 87.2556C54.6614 87.9618 56.1568 87.5461 56.863 86.2996ZM66.5431 98.1405L78.7992 76.8692C79.5471 75.664 79.1732 74.2516 77.9684 73.5037C76.7636 72.7975 75.2678 73.1714 74.5199 74.4179L62.3472 95.6062C61.641 96.894 61.9732 98.3481 63.2197 99.0543C64.4245 99.7605 65.8369 99.3866 66.5431 98.1405Z" fill="#5AC8F5"/>
<path d="M6.84244 66.8981H91.2212C92.717 66.8981 93.8384 65.7763 93.8384 64.2809C93.8384 62.7851 92.717 61.6633 91.2212 61.6633H6.84244C5.38837 61.6633 4.2251 62.7851 4.2251 64.2809C4.2251 65.7763 5.38837 66.8981 6.84244 66.8981Z" fill="white"/>
</g>
<defs>
<clipPath id="clip0_17_27">
<rect width="100" height="100" fill="white" transform="translate(0.423767)"/>
</clipPath>
</defs>
</svg>
