<svg width="101" height="100" viewBox="0 0 101 100" fill="none" xmlns="http://www.w3.org/2000/svg">
<g clip-path="url(#clip0_25_7)">
<path d="M0.912003 40.0803C0.912003 62.1795 18.8929 80.1604 40.9923 80.1604C49.7316 80.1604 57.7174 77.3481 64.297 72.6267L89.0082 97.3878C90.1634 98.5435 91.6703 99.0958 93.2775 99.0958C96.6926 99.0958 99.0533 96.534 99.0533 93.1689C99.0533 91.5617 98.4505 90.1051 97.3962 89.0508L72.8356 64.3396C78.0086 57.6093 81.0724 49.2214 81.0724 40.0803C81.0724 17.9809 63.0915 0 40.9923 0C18.8929 0 0.912003 17.9809 0.912003 40.0803ZM9.50062 40.0803C9.50062 22.7021 23.6141 8.58862 40.9923 8.58862C58.3706 8.58862 72.4839 22.7021 72.4839 40.0803C72.4839 57.4586 58.3706 71.5718 40.9923 71.5718C23.6141 71.5718 9.50062 57.4586 9.50062 40.0803Z" fill="#5359FF"/>
</g>
<defs>
<clipPath id="clip0_25_7">
<rect width="100" height="99.0958" fill="white" transform="translate(0.912003)"/>
</clipPath>
</defs>
</svg>
