<svg width="118" height="100" viewBox="0 0 118 100" fill="none" xmlns="http://www.w3.org/2000/svg">
<g clip-path="url(#clip0_22_129)">
<path d="M6.60733 33.9155C14.72 31.3239 23.1144 29.9718 31.1143 29.9718C41.4805 29.9718 49.0862 31.6619 58.8891 31.6619C69.0298 31.6619 75.3394 24.7887 75.3394 15.831C75.3394 6.64786 68.2972 0.0563383 59.6212 0.0563383C53.1988 0.0563383 47.565 4.11267 45.1988 9.46475C44.2974 11.3239 44.6355 13.4648 46.6073 14.4789C48.4101 15.3803 50.6073 14.8169 51.7904 12.5633C53.0298 9.69015 56.0721 7.4366 59.6212 7.4366C64.2975 7.4366 67.9591 10.7042 67.9591 15.831C67.9591 20.9577 64.41 24.338 58.8891 24.338C49.5368 24.338 41.8185 22.6479 31.1143 22.6479C21.9313 22.6479 12.6355 24.2816 4.3538 26.9296C1.9876 27.6056 1.08619 29.6338 1.64957 31.5493C2.21295 33.5211 4.07211 34.6479 6.60733 33.9155ZM94.7198 60.2815C107.847 60.2815 117.142 51.9436 117.142 40.2816C117.142 28.7887 108.297 20.4507 97.3113 20.4507C87.1145 20.4507 79.5652 27.5493 78.213 36.845C77.8749 39.2113 79.1706 41.0704 81.199 41.3521C83.2833 41.6338 85.0862 40.338 85.5367 37.6901C86.4944 31.7746 91.3957 27.7746 97.3113 27.7746C104.184 27.7746 109.762 32.9014 109.762 40.2816C109.762 47.7746 103.846 52.9577 94.7198 52.9577C77.5368 52.9577 59.0016 43.1549 36.4664 43.1549C24.8608 43.1549 14.2693 45.014 4.3538 48.507C2.04394 49.3521 1.08619 51.3239 1.64957 53.2394C2.21295 55.2112 4.12845 56.3943 6.60733 55.5493C15.7904 52.0563 25.3679 50.5352 36.4664 50.5352C58.945 50.5352 75.734 60.2815 94.7198 60.2815ZM58.945 100C67.6216 100 74.3258 93.5774 74.3258 84.3943C74.3258 71.0984 60.7479 63.6622 35.7341 63.6622C25.2552 63.6622 13.9313 65.69 4.3538 68.9575C2.04394 69.8027 1.08619 71.7746 1.64957 73.6899C2.21295 75.6617 4.12845 76.8449 6.60733 75.9998C15.565 72.7887 25.5932 71.0425 35.7341 71.0425C56.1847 71.0425 67.0015 76.1688 67.0015 84.3943C67.0015 89.5212 63.3958 92.6762 58.945 92.6762C54.4946 92.6762 51.7904 89.6902 51.0016 84.9579C50.6636 82.873 49.1425 81.1267 46.7199 81.2957C44.1847 81.4648 43.1707 83.6056 43.5087 85.9155C44.5228 93.7464 50.3256 100 58.945 100Z" fill="white"/>
</g>
<defs>
<clipPath id="clip0_22_129">
<rect width="117.126" height="100" fill="white" transform="translate(0.0157471)"/>
</clipPath>
</defs>
</svg>
